<?xml version='1.0' encoding='utf-8'?>
<svg xmlns:xlink="http://www.w3.org/1999/xlink" xmlns="http://www.w3.org/2000/svg" width="60.158825" height="51.440151" viewBox="0 0 60.158825 51.440151" version="1.1" id="svg5"><defs id="defs2"><linearGradient id="linearGradient1730"><stop style="stop-color:#680089;stop-opacity:1;" offset="0" id="stop1726"/><stop style="stop-color:#eeb7ff;stop-opacity:1;" offset="1" id="stop1728"/></linearGradient><linearGradient xlink:href="#linearGradient1730" id="linearGradient1724" gradientUnits="userSpaceOnUse" x1="14.052916" y1="77.307854" x2="25.262852" y2="69.189087"/><filter style="color-interpolation-filters:sRGB" id="filter2581" x="-0.27692309" y="-0.36000001" width="1.5923077" height="1.77"><feFlood flood-opacity="0.65098" flood-color="rgb(0,0,0)" result="flood" id="feFlood2571"/><feComposite in="SourceGraphic" in2="flood" operator="in" result="composite1" id="feComposite2573"/><feGaussianBlur in="composite1" stdDeviation="1.5" result="blur" id="feGaussianBlur2575"/><feOffset dx="0.5" dy="0.5" result="offset" id="feOffset2577"/><feComposite in="SourceGraphic" in2="offset" operator="over" result="composite2" id="feComposite2579"/></filter></defs><g id="layer1" transform="translate(5.3592458,2.8440025)"><g id="g2413" transform="matrix(2.9062234,0,0,2.9062234,-34.641716,-190.26022)" style="filter:url(#filter2581)"><path id="path1848" style="font-variation-settings:normal;opacity:1;fill:url(#linearGradient1724);fill-opacity:1;stroke:none;stroke-width:1.74217;stroke-linecap:round;stroke-linejoin:miter;stroke-miterlimit:4;stroke-dasharray:none;stroke-dashoffset:0;stroke-opacity:1;stop-color:#000000;stop-opacity:1" d="m 18.675781,68.087891 c -0.553999,0 -0.7522,0.5045 -1,1 l -0.5,1 h -2 c -0.830999,0 -1.5,0.669 -1.5,1.5 v 5 c 0,0.830999 0.669001,1.5 1.5,1.5 h 10 c 0.830999,0 1.5,-0.669001 1.5,-1.5 v -5 c 0,-0.831 -0.669001,-1.5 -1.5,-1.5 h -2 l -0.5,-1 c -0.25,-0.5 -0.446,-1 -1,-1 z"/><circle style="font-variation-settings:normal;opacity:1;fill:#ffffff;fill-opacity:0.65;fill-rule:nonzero;stroke:none;stroke-width:1.74217;stroke-linecap:round;stroke-linejoin:miter;stroke-miterlimit:4;stroke-dasharray:none;stroke-dashoffset:0;stroke-opacity:1;stop-color:#000000;stop-opacity:1" id="path2351" cx="15.091828" cy="71.520157" r="0.52106977"/><path id="path2405" style="font-variation-settings:normal;opacity:1;fill:#ffffff;fill-opacity:0.65;fill-rule:nonzero;stroke:none;stroke-width:1.41054;stroke-linecap:round;stroke-linejoin:miter;stroke-miterlimit:4;stroke-dasharray:none;stroke-dashoffset:0;stroke-opacity:1;stop-color:#000000;stop-opacity:1" d="m 20.340105,71.319943 a 2.6308533,2.6308533 0 0 0 -2.631343,2.629762 2.6308533,2.6308533 0 0 0 2.631343,2.631343 2.6308533,2.6308533 0 0 0 2.631343,-2.631343 2.6308533,2.6308533 0 0 0 -2.631343,-2.629762 z m 0,1.393157 a 1.2372669,1.2372669 0 0 1 1.238186,1.236605 1.2372669,1.2372669 0 0 1 -1.238186,1.238186 1.2372669,1.2372669 0 0 1 -1.236604,-1.238186 1.2372669,1.2372669 0 0 1 1.236604,-1.236605 z"/></g></g></svg>